<?xml version="1.0" encoding="UTF-8" standalone="no"?><!-- Generator: Gravit.io --><svg xmlns="http://www.w3.org/2000/svg" xmlns:xlink="http://www.w3.org/1999/xlink" style="isolation:isolate" viewBox="0 0 58.427 60" width="58.427pt" height="60pt"><defs><clipPath id="_clipPath_WnK2qEUHQ5GwVCGSEAGk0rcoCLduUp0f"><rect width="58.427" height="60"/></clipPath></defs><g clip-path="url(#_clipPath_WnK2qEUHQ5GwVCGSEAGk0rcoCLduUp0f)"><g><g><path d=" M 0 0 L 0 60 L 37.316 60 C 48.975 60 58.427 50.561 58.427 38.917 L 58.427 0 L 0 0 Z " fill-rule="evenodd" fill="rgb(255,255,255)"/><path d=" M 7.918 24.831 L 7.918 28.773 C 7.918 30.098 8.471 30.71 9.305 30.71 C 10.199 30.71 10.731 30.098 10.731 28.773 L 10.731 24.831 L 11.966 24.831 L 11.966 28.693 C 11.966 30.78 10.891 31.703 9.264 31.703 C 7.698 31.703 6.683 30.83 6.683 28.704 L 6.683 24.831 L 7.918 24.831 Z " fill-rule="evenodd" fill="rgb(0,0,0,)"/><path d=" M 13.383 28.162 C 13.383 27.6 13.373 27.129 13.342 26.707 L 14.428 26.707 L 14.488 27.44 L 14.518 27.44 C 14.729 27.058 15.261 26.597 16.075 26.597 C 16.929 26.597 17.812 27.149 17.812 28.693 L 17.812 31.592 L 16.576 31.592 L 16.576 28.834 C 16.576 28.132 16.316 27.6 15.643 27.6 C 15.15 27.6 14.809 27.951 14.679 28.323 C 14.638 28.433 14.628 28.583 14.628 28.723 L 14.628 31.592 L 13.383 31.592 L 13.383 28.162 Z " fill-rule="evenodd" fill="rgb(0,0,0)"/><path d=" M 20.494 25.343 C 20.494 25.714 20.223 26.005 19.791 26.005 C 19.379 26.005 19.108 25.714 19.108 25.343 C 19.108 24.962 19.389 24.671 19.801 24.671 C 20.223 24.671 20.484 24.962 20.494 25.343 L 20.494 25.343 Z  M 19.179 31.592 L 20.424 31.592 L 20.424 26.707 L 19.179 26.707 L 19.179 31.592 Z " fill-rule="evenodd" fill="rgb(0,0,0)"/><path d=" M 22.584 26.707 L 23.377 29.185 C 23.518 29.616 23.618 30.008 23.709 30.409 L 23.739 30.409 C 23.83 30.008 23.94 29.626 24.07 29.185 L 24.844 26.707 L 26.15 26.707 L 24.281 31.592 L 23.066 31.592 L 21.248 26.707 L 22.584 26.707 Z " fill-rule="evenodd" fill="rgb(0,0,0)"/><path d=" M 27.696 29.496 C 27.726 30.379 28.42 30.76 29.203 30.76 C 29.776 30.76 30.188 30.679 30.559 30.539 L 30.74 31.392 C 30.318 31.562 29.736 31.693 29.032 31.693 C 27.446 31.693 26.511 30.72 26.511 29.225 C 26.511 27.871 27.335 26.597 28.902 26.597 C 30.489 26.597 31.011 27.901 31.011 28.974 C 31.011 29.205 30.991 29.386 30.971 29.496 L 27.696 29.496 Z  M 29.847 28.633 C 29.856 28.182 29.655 27.439 28.832 27.439 C 28.068 27.439 27.747 28.132 27.696 28.633 L 29.847 28.633 Z " fill-rule="evenodd" fill="rgb(0,0,0)"/><path d=" M 32.056 28.282 C 32.056 27.62 32.046 27.149 32.016 26.707 L 33.091 26.707 L 33.13 27.64 L 33.171 27.64 C 33.412 26.948 33.985 26.597 34.507 26.597 C 34.628 26.597 34.698 26.607 34.798 26.627 L 34.798 27.791 C 34.698 27.771 34.588 27.75 34.437 27.75 C 33.844 27.75 33.442 28.132 33.332 28.684 C 33.312 28.794 33.292 28.924 33.292 29.064 L 33.292 31.592 L 32.056 31.592 L 32.056 28.282 Z " fill-rule="evenodd" fill="rgb(0,0,0)"/><path d=" M 35.622 30.459 C 35.903 30.629 36.436 30.81 36.877 30.81 C 37.42 30.81 37.662 30.589 37.662 30.268 C 37.662 29.937 37.46 29.767 36.857 29.556 C 35.903 29.225 35.501 28.703 35.511 28.132 C 35.511 27.269 36.225 26.597 37.36 26.597 C 37.903 26.597 38.375 26.738 38.655 26.888 L 38.414 27.761 C 38.204 27.64 37.812 27.48 37.38 27.48 C 36.938 27.48 36.697 27.69 36.697 27.991 C 36.697 28.302 36.928 28.452 37.551 28.673 C 38.435 28.994 38.847 29.446 38.857 30.168 C 38.857 31.051 38.163 31.693 36.867 31.693 C 36.275 31.693 35.742 31.552 35.38 31.351 L 35.622 30.459 Z " fill-rule="evenodd" fill="rgb(0,0,0)"/><path d=" M 41.237 25.343 C 41.237 25.714 40.966 26.005 40.534 26.005 C 40.122 26.005 39.85 25.714 39.85 25.343 C 39.85 24.962 40.132 24.671 40.544 24.671 C 40.966 24.671 41.227 24.962 41.237 25.343 L 41.237 25.343 Z  M 39.921 31.592 L 41.166 31.592 L 41.166 26.707 L 39.921 26.707 L 39.921 31.592 Z " fill-rule="evenodd" fill="rgb(0,0,0)"/><path d=" M 43.959 25.313 L 43.959 26.707 L 45.134 26.707 L 45.134 27.63 L 43.959 27.63 L 43.959 29.787 C 43.959 30.379 44.12 30.689 44.592 30.689 C 44.802 30.689 44.963 30.66 45.074 30.629 L 45.094 31.572 C 44.913 31.643 44.592 31.693 44.2 31.693 C 43.748 31.693 43.367 31.542 43.135 31.291 C 42.874 31.011 42.754 30.569 42.754 29.927 L 42.754 27.63 L 42.051 27.63 L 42.051 26.707 L 42.754 26.707 L 42.754 25.604 L 43.959 25.313 Z " fill-rule="evenodd" fill="rgb(0,0,0)"/><path d=" M 46.962 26.707 L 47.846 29.325 C 47.946 29.626 48.047 29.997 48.117 30.278 L 48.147 30.278 C 48.228 29.997 48.318 29.636 48.409 29.315 L 49.172 26.707 L 50.498 26.707 L 49.272 30.038 C 48.6 31.863 48.147 32.675 47.565 33.177 C 47.083 33.608 46.58 33.769 46.269 33.809 L 45.988 32.766 C 46.199 32.716 46.46 32.605 46.711 32.425 C 46.942 32.274 47.213 31.983 47.384 31.653 C 47.435 31.562 47.464 31.492 47.464 31.432 C 47.464 31.382 47.454 31.311 47.394 31.191 L 45.606 26.707 L 46.962 26.707 Z " fill-rule="evenodd" fill="rgb(0,0,0)"/><path d=" M 11.294 39.38 C 11.294 41.176 10.028 41.978 8.782 41.978 C 7.396 41.978 6.331 41.025 6.331 39.46 C 6.331 37.855 7.386 36.872 8.862 36.872 C 10.319 36.872 11.294 37.895 11.294 39.38 Z  M 7.607 39.43 C 7.607 40.373 8.069 41.086 8.823 41.086 C 9.526 41.086 10.018 40.393 10.018 39.41 C 10.018 38.648 9.676 37.775 8.832 37.775 C 7.958 37.775 7.607 38.618 7.607 39.43 Z " fill-rule="evenodd" fill="rgb(0,0,0)"/><path d=" M 12.499 41.868 L 12.499 37.906 L 11.836 37.906 L 11.836 36.983 L 12.499 36.983 L 12.499 36.772 C 12.499 36.141 12.67 35.508 13.092 35.107 C 13.453 34.766 13.946 34.636 14.367 34.636 C 14.699 34.636 14.96 34.686 15.161 34.756 L 15.07 35.709 C 14.94 35.659 14.769 35.619 14.548 35.619 C 13.935 35.619 13.725 36.13 13.725 36.732 L 13.725 36.983 L 14.799 36.983 L 14.799 37.906 L 13.734 37.906 L 13.734 41.868 L 12.499 41.868 Z " fill-rule="evenodd" fill="rgb(0,0,0)"/><path d=" M 17.762 40.523 C 18.164 40.754 18.767 40.955 19.4 40.955 C 20.193 40.955 20.635 40.584 20.635 40.032 C 20.635 39.52 20.294 39.219 19.43 38.909 C 18.315 38.507 17.601 37.916 17.601 36.943 C 17.601 35.839 18.526 34.996 19.992 34.996 C 20.725 34.996 21.268 35.157 21.619 35.337 L 21.318 36.331 C 21.077 36.2 20.605 36.01 19.972 36.01 C 19.189 36.01 18.847 36.431 18.847 36.822 C 18.847 37.344 19.238 37.585 20.142 37.935 C 21.318 38.377 21.891 38.969 21.891 39.942 C 21.891 41.025 21.067 41.968 19.319 41.968 C 18.606 41.968 17.863 41.767 17.491 41.547 L 17.762 40.523 Z " fill-rule="evenodd" fill="rgb(0,0,0)"/><path d=" M 27.716 39.38 C 27.716 41.176 26.451 41.978 25.205 41.978 C 23.819 41.978 22.754 41.025 22.754 39.46 C 22.754 37.855 23.809 36.872 25.285 36.872 C 26.742 36.872 27.716 37.895 27.716 39.38 Z  M 24.03 39.43 C 24.03 40.373 24.492 41.086 25.245 41.086 C 25.949 41.086 26.441 40.393 26.441 39.41 C 26.441 38.648 26.1 37.775 25.255 37.775 C 24.382 37.775 24.03 38.618 24.03 39.43 Z " fill-rule="evenodd" fill="rgb(0,0,0)"/><path d=" M 33.161 40.403 C 33.161 40.985 33.181 41.467 33.201 41.868 L 32.116 41.868 L 32.056 41.126 L 32.036 41.126 C 31.825 41.477 31.343 41.978 30.469 41.978 C 29.575 41.978 28.761 41.447 28.761 39.852 L 28.761 36.983 L 29.996 36.983 L 29.996 39.641 C 29.996 40.453 30.258 40.975 30.911 40.975 C 31.403 40.975 31.724 40.624 31.855 40.313 C 31.895 40.203 31.926 40.073 31.926 39.931 L 31.926 36.983 L 33.161 36.983 L 33.161 40.403 Z " fill-rule="evenodd" fill="rgb(0,0,0)"/><path d=" M 35.964 35.588 L 35.964 36.983 L 37.139 36.983 L 37.139 37.905 L 35.964 37.905 L 35.964 40.063 C 35.964 40.654 36.125 40.965 36.596 40.965 C 36.807 40.965 36.968 40.935 37.078 40.905 L 37.099 41.848 C 36.918 41.918 36.596 41.968 36.204 41.968 C 35.753 41.968 35.371 41.817 35.14 41.566 C 34.878 41.286 34.758 40.845 34.758 40.203 L 34.758 37.905 L 34.055 37.905 L 34.055 36.983 L 34.758 36.983 L 34.758 35.88 L 35.964 35.588 Z " fill-rule="evenodd" fill="rgb(0,0,0)"/><path d=" M 38.123 34.746 L 39.368 34.746 L 39.368 37.655 L 39.389 37.655 C 39.539 37.424 39.74 37.233 40.001 37.093 C 40.243 36.953 40.533 36.872 40.845 36.872 C 41.678 36.872 42.553 37.424 42.553 38.989 L 42.553 41.868 L 41.317 41.868 L 41.317 39.129 C 41.317 38.418 41.056 37.885 40.372 37.885 C 39.891 37.885 39.549 38.207 39.419 38.578 C 39.378 38.678 39.368 38.809 39.368 38.949 L 39.368 41.868 L 38.123 41.868 L 38.123 34.746 Z " fill-rule="evenodd" fill="rgb(0,0,0)"/><path d=" M 7.788 52.143 L 6.131 45.383 L 7.446 45.383 L 8.089 48.452 C 8.26 49.274 8.421 50.137 8.531 50.809 L 8.551 50.809 C 8.662 50.097 8.852 49.294 9.043 48.442 L 9.776 45.383 L 11.072 45.383 L 11.745 48.492 C 11.916 49.294 12.057 50.047 12.157 50.779 L 12.178 50.779 C 12.298 50.037 12.458 49.264 12.64 48.442 L 13.343 45.383 L 14.598 45.383 L 12.78 52.143 L 11.454 52.143 L 10.751 48.963 C 10.58 48.191 10.46 47.549 10.379 46.817 L 10.359 46.817 C 10.239 47.539 10.108 48.191 9.907 48.963 L 9.124 52.143 L 7.788 52.143 Z " fill-rule="evenodd" fill="rgb(0,0,0)"/><path d=" M 17.792 52.143 L 17.712 51.602 L 17.682 51.602 C 17.381 51.982 16.868 52.254 16.236 52.254 C 15.251 52.254 14.699 51.542 14.699 50.799 C 14.699 49.565 15.793 48.944 17.602 48.954 L 17.602 48.873 C 17.602 48.552 17.471 48.02 16.607 48.02 C 16.125 48.02 15.622 48.171 15.291 48.382 L 15.05 47.579 C 15.412 47.359 16.045 47.148 16.818 47.148 C 18.385 47.148 18.837 48.141 18.837 49.204 L 18.837 50.97 C 18.837 51.411 18.857 51.842 18.908 52.143 L 17.792 52.143 Z  M 17.632 49.756 C 16.758 49.736 15.924 49.927 15.924 50.669 C 15.924 51.15 16.236 51.371 16.627 51.371 C 17.12 51.371 17.481 51.05 17.591 50.699 C 17.622 50.608 17.632 50.509 17.632 50.428 L 17.632 49.756 Z " fill-rule="evenodd" fill="rgb(0,0,0)"/><path d=" M 27.998 51.01 C 28.279 51.18 28.811 51.361 29.254 51.361 C 29.796 51.361 30.037 51.14 30.037 50.819 C 30.037 50.489 29.836 50.318 29.233 50.107 C 28.279 49.776 27.878 49.255 27.888 48.683 C 27.888 47.82 28.6 47.148 29.736 47.148 C 30.278 47.148 30.75 47.288 31.031 47.439 L 30.791 48.311 C 30.58 48.191 30.188 48.03 29.756 48.03 C 29.314 48.03 29.073 48.241 29.073 48.542 C 29.073 48.853 29.304 49.003 29.927 49.225 C 30.81 49.545 31.222 49.997 31.232 50.718 C 31.232 51.602 30.539 52.244 29.243 52.244 C 28.651 52.244 28.119 52.103 27.757 51.902 L 27.998 51.01 Z " fill-rule="evenodd" fill="rgb(0,0,0)"/><path d=" M 23.699 50.047 C 23.729 50.929 24.422 51.311 25.205 51.311 C 25.778 51.311 26.19 51.231 26.561 51.09 L 26.742 51.943 C 26.32 52.113 25.738 52.244 25.035 52.244 C 23.448 52.244 22.514 51.271 22.514 49.776 C 22.514 48.422 23.337 47.148 24.904 47.148 C 26.491 47.148 27.014 48.452 27.014 49.525 C 27.014 49.756 26.993 49.937 26.973 50.047 L 23.699 50.047 Z  M 25.848 49.184 C 25.858 48.733 25.657 47.99 24.834 47.99 C 24.07 47.99 23.749 48.683 23.699 49.184 L 25.848 49.184 Z " fill-rule="evenodd" fill="rgb(0,0,0)"/><path d=" M 20.193 52.143 L 21.439 52.143 L 21.439 45.021 L 20.193 45.021 L 20.193 52.143 Z " fill-rule="evenodd" fill="rgb(0,0,0)"/></g></g></g></svg>